<svg width="152" height="50" viewBox="0 0 152 50" fill="none" xmlns="http://www.w3.org/2000/svg">
<g clip-path="url(#clip0_242_586)">
<path d="M146.488 30.1766L150.66 32.9596C149.306 34.9553 146.067 38.3792 140.466 38.3792C133.512 38.3792 128.333 32.9963 128.333 26.1486C128.333 18.8615 133.567 13.918 139.881 13.918C146.231 13.918 149.343 18.9713 150.349 21.6994L150.898 23.0909L134.537 29.8654C135.781 32.3188 137.721 33.5638 140.466 33.5638C143.212 33.5638 145.115 32.209 146.488 30.1766ZM133.658 25.7641L144.584 21.2234C143.98 19.7037 142.187 18.6235 140.045 18.6235C137.319 18.6235 133.53 21.0403 133.658 25.7641Z" fill="#FF302F"/>
<path d="M120.444 1.44922H125.715V37.2622H120.444V1.44922Z" fill="#20B15A"/>
<path d="M112.135 14.8698H117.223V36.6213C117.223 45.6477 111.897 49.3645 105.602 49.3645C99.6721 49.3645 96.1033 45.3731 94.7673 42.1324L99.4342 40.1916C100.276 42.1873 102.308 44.5492 105.602 44.5492C109.646 44.5492 112.135 42.0408 112.135 37.3536V35.5959H111.952C110.744 37.0607 108.439 38.3789 105.51 38.3789C99.3976 38.3789 93.7974 33.0509 93.7974 26.185C93.7974 19.2823 99.3976 13.8994 105.51 13.8994C108.42 13.8994 110.744 15.1994 111.952 16.6275H112.135V14.8698ZM112.501 26.185C112.501 21.864 109.628 18.7148 105.968 18.7148C102.271 18.7148 99.1597 21.864 99.1597 26.185C99.1597 30.451 102.271 33.5453 105.968 33.5453C109.628 33.5636 112.501 30.451 112.501 26.185Z" fill="#3686F7"/>
<path d="M64.8628 26.0936C64.8628 33.1427 59.3724 38.3243 52.6375 38.3243C45.9025 38.3243 40.4121 33.1244 40.4121 26.0936C40.4121 19.0079 45.9025 13.8447 52.6375 13.8447C59.3724 13.8447 64.8628 19.0079 64.8628 26.0936ZM59.5188 26.0936C59.5188 21.6994 56.3343 18.6784 52.6375 18.6784C48.9406 18.6784 45.7561 21.6994 45.7561 26.0936C45.7561 30.4513 48.9406 33.5089 52.6375 33.5089C56.3343 33.5089 59.5188 30.4513 59.5188 26.0936Z" fill="#FF302F"/>
<path d="M91.565 26.1486C91.565 33.1977 86.0745 38.3792 79.3396 38.3792C72.6047 38.3792 67.1143 33.1977 67.1143 26.1486C67.1143 19.0629 72.6047 13.918 79.3396 13.918C86.0745 13.918 91.565 19.0446 91.565 26.1486ZM86.2026 26.1486C86.2026 21.7543 83.0182 18.7333 79.3213 18.7333C75.6244 18.7333 72.44 21.7543 72.44 26.1486C72.44 30.5062 75.6244 33.5638 79.3213 33.5638C83.0365 33.5638 86.2026 30.4879 86.2026 26.1486Z" fill="#FFBA40"/>
<path d="M20.3177 33.0146C12.6494 33.0146 6.64658 26.8261 6.64658 19.1545C6.64658 11.4829 12.6494 5.29432 20.3177 5.29432C24.4539 5.29432 27.4736 6.92385 29.7064 9.01111L33.385 5.33094C30.2737 2.34652 26.1193 0.0761719 20.3177 0.0761719C9.81273 0.0761719 0.973145 8.64492 0.973145 19.1545C0.973145 29.664 9.81273 38.2327 20.3177 38.2327C25.9912 38.2327 30.2737 36.3652 33.6229 32.8864C37.0635 29.4443 38.125 24.6106 38.125 20.6924C38.125 19.4657 37.9786 18.2024 37.8139 17.2686H20.3177V22.3586H32.781C32.415 25.5444 31.4084 27.7232 29.926 29.2063C28.1325 31.0189 25.2957 33.0146 20.3177 33.0146Z" fill="#3686F7"/>
</g>
<defs>
<clipPath id="clip0_242_586">
<rect width="150.418" height="49.3773" fill="white" transform="translate(0.754395)"/>
</clipPath>
</defs>
</svg>
