<svg width="143" height="43" viewBox="0 0 143 43" fill="none" xmlns="http://www.w3.org/2000/svg">
<g clip-path="url(#clip0_127_1089)">
<path fill-rule="evenodd" clip-rule="evenodd" d="M88.6225 33.3187C80.4005 39.3744 68.4833 42.6053 58.2227 42.6053C43.8358 42.6053 30.8839 37.2881 21.0853 28.4445C20.3154 27.7491 21.0052 26.8014 21.929 27.3429C32.5037 33.491 45.5788 37.1896 59.085 37.1896C68.1938 37.1896 78.2141 35.3065 87.4277 31.3985C88.8196 30.8077 89.9836 32.3094 88.6225 33.3187Z" fill="#FF9900"/>
<path fill-rule="evenodd" clip-rule="evenodd" d="M92.0407 29.4109C90.9937 28.0693 85.0937 28.777 82.4454 29.0909C81.6386 29.1894 81.5154 28.4878 82.2421 27.9832C86.9413 24.6784 94.6521 25.6323 95.5512 26.74C96.4504 27.8539 95.3172 35.5774 90.9014 39.2638C90.2239 39.83 89.5772 39.5284 89.879 38.7776C90.8706 36.3036 93.0939 30.7587 92.0407 29.4109Z" fill="#FF9900"/>
<path fill-rule="evenodd" clip-rule="evenodd" d="M82.6301 4.65277V1.44028C82.6301 0.954102 82.9997 0.62793 83.4431 0.62793H97.8362C98.2981 0.62793 98.6676 0.960256 98.6676 1.44028V4.19121C98.6614 4.65277 98.2734 5.25588 97.5837 6.20978L90.1254 16.8504C92.8968 16.7827 95.8222 17.195 98.335 18.6105C98.9016 18.9305 99.0556 19.3982 99.0987 19.8598V23.2877C99.0987 23.7554 98.5814 24.3031 98.0394 24.02C93.6112 21.6999 87.7296 21.4476 82.8334 24.0446C82.3345 24.3154 81.811 23.7738 81.811 23.3061V20.0506C81.811 19.5275 81.8172 18.6351 82.3407 17.8412L90.9815 5.45897H83.4616C82.9997 5.45897 82.6301 5.1328 82.6301 4.65277Z" fill="black"/>
<path fill-rule="evenodd" clip-rule="evenodd" d="M30.1264 24.6972H25.7475C25.3287 24.6664 24.9961 24.3526 24.9653 23.9525V1.4959C24.9653 1.04664 25.341 0.689694 25.8091 0.689694H29.8924C30.3173 0.708144 30.656 1.03433 30.6868 1.4405V4.37606H30.7669C31.8324 1.53897 33.834 0.21582 36.5315 0.21582C39.2722 0.21582 40.9843 1.53897 42.2161 4.37606C43.2754 1.53897 45.6835 0.21582 48.264 0.21582C50.0993 0.21582 52.1071 0.972785 53.3327 2.67134C54.7184 4.56068 54.4351 7.30544 54.4351 9.71174L54.4289 23.8848C54.4289 24.3341 54.0533 24.6972 53.5852 24.6972H49.2125C48.7752 24.6664 48.4241 24.3156 48.4241 23.8848V11.9826C48.4241 11.0349 48.5104 8.67168 48.301 7.77316C47.9745 6.26539 46.9953 5.84075 45.7266 5.84075C44.6673 5.84075 43.5587 6.54848 43.1091 7.68085C42.6595 8.81322 42.7026 10.7087 42.7026 11.9826V23.8848C42.7026 24.3341 42.3269 24.6972 41.8589 24.6972H37.4861C37.0427 24.6664 36.6978 24.3156 36.6978 23.8848L36.6917 11.9826C36.6917 9.47788 37.1043 5.79152 33.9941 5.79152C30.847 5.79152 30.9701 9.38556 30.9701 11.9826V23.8848C30.9701 24.3341 30.5945 24.6972 30.1264 24.6972" fill="black"/>
<path fill-rule="evenodd" clip-rule="evenodd" d="M111.059 0.21582C117.557 0.21582 121.073 5.79152 121.073 12.8811C121.073 19.7308 117.187 25.1649 111.059 25.1649C104.679 25.1649 101.205 19.5892 101.205 12.6411C101.205 5.64997 104.722 0.21582 111.059 0.21582ZM111.096 4.80069C107.869 4.80069 107.666 9.19478 107.666 11.9334C107.666 14.6782 107.623 20.537 111.059 20.537C114.453 20.537 114.613 15.8105 114.613 12.9304C114.613 11.0349 114.533 8.77014 113.96 6.97312C113.467 5.40996 112.488 4.80069 111.096 4.80069Z" fill="black"/>
<path fill-rule="evenodd" clip-rule="evenodd" d="M129.498 24.6972H125.138C124.7 24.6664 124.349 24.3156 124.349 23.8848L124.343 1.42204C124.38 1.00971 124.744 0.689694 125.187 0.689694H129.246C129.627 0.708144 129.942 0.966633 130.028 1.31742V4.75146H130.108C131.333 1.68052 133.052 0.21582 136.076 0.21582C138.04 0.21582 139.956 0.923553 141.188 2.86212C142.333 4.65914 142.333 7.68085 142.333 9.85328V23.9895C142.284 24.3833 141.92 24.6972 141.489 24.6972H137.098C136.698 24.6664 136.365 24.371 136.322 23.9895V11.7919C136.322 9.33633 136.605 5.74228 133.581 5.74228C132.516 5.74228 131.537 6.45617 131.05 7.5393C130.434 8.91169 130.354 10.2779 130.354 11.7919V23.8848C130.348 24.3341 129.966 24.6972 129.498 24.6972" fill="black"/>
<path fill-rule="evenodd" clip-rule="evenodd" d="M71.1561 13.97C71.1561 15.6747 71.1992 17.0963 70.3369 18.6103C69.641 19.8411 68.5324 20.5981 67.3068 20.5981C65.6255 20.5981 64.6401 19.318 64.6401 17.4287C64.6401 13.6992 67.9843 13.0223 71.1561 13.0223V13.97ZM75.5719 24.6352C75.2824 24.8937 74.8636 24.9122 74.5372 24.7399C73.0838 23.5336 72.8189 22.9736 72.0244 21.8228C69.6225 24.2721 67.9165 25.0045 64.8064 25.0045C61.1172 25.0045 58.2534 22.7336 58.2534 18.1856C58.2534 14.6347 60.175 12.2161 62.9218 11.0345C65.2991 9.98825 68.6186 9.80363 71.1561 9.51438V8.9482C71.1561 7.90814 71.2361 6.6773 70.6202 5.77879C70.0906 4.97259 69.0682 4.64026 68.1629 4.64026C66.4939 4.64026 65.0096 5.49569 64.6462 7.2681C64.5723 7.66197 64.2829 8.04969 63.8825 8.06815L59.6391 7.61273C59.2819 7.53273 58.8816 7.24348 58.9863 6.69576C59.9594 1.55086 64.6154 0 68.7788 0C70.9097 0 73.6935 0.566187 75.3748 2.17858C77.5058 4.16639 77.3025 6.81884 77.3025 9.70516V16.524C77.3025 18.5734 78.1524 19.4719 78.9531 20.5796C79.2302 20.9735 79.2918 21.4474 78.9346 21.7428C78.0416 22.4874 76.4526 23.8721 75.578 24.6475L75.5719 24.6352" fill="black"/>
<path fill-rule="evenodd" clip-rule="evenodd" d="M13.7503 13.97C13.7503 15.6747 13.7934 17.0963 12.9312 18.6103C12.2352 19.8411 11.1328 20.5981 9.90106 20.5981C8.21971 20.5981 7.24047 19.318 7.24047 17.4287C7.24047 13.6992 10.5847 13.0223 13.7503 13.0223V13.97ZM18.1661 24.6352C17.8767 24.8937 17.4579 24.9122 17.1315 24.7399C15.678 23.5336 15.4193 22.9736 14.6187 21.8228C12.2168 24.2721 10.5169 25.0045 7.4006 25.0045C3.71764 25.0045 0.847656 22.7336 0.847656 18.1856C0.847656 14.6347 2.77535 12.2161 5.51601 11.0345C7.8933 9.98825 11.2129 9.80363 13.7503 9.51438V8.9482C13.7503 7.90814 13.8304 6.6773 13.2206 5.77879C12.6848 4.97259 11.6625 4.64026 10.7633 4.64026C9.09426 4.64026 7.60384 5.49569 7.24047 7.2681C7.16656 7.66197 6.8771 8.04969 6.48294 8.06815L2.23338 7.61273C1.87617 7.53273 1.48201 7.24348 1.58055 6.69576C2.5598 1.55086 7.20967 0 11.373 0C13.5039 0 16.2877 0.566187 17.9691 2.17858C20.1 4.16639 19.8968 6.81884 19.8968 9.70516V16.524C19.8968 18.5734 20.7467 19.4719 21.5473 20.5796C21.8306 20.9735 21.8922 21.4474 21.535 21.7428C20.642 22.4874 19.053 23.8721 18.1785 24.6475L18.1661 24.6352" fill="black"/>
</g>
<defs>
<clipPath id="clip0_127_1089">
<rect width="141.486" height="42.6055" fill="white" transform="translate(0.847656)"/>
</clipPath>
</defs>
</svg>
