<svg width="167" height="53" viewBox="0 0 167 53" fill="none" xmlns="http://www.w3.org/2000/svg">
<g clip-path="url(#clip0_127_1079)">
<path d="M87.8364 13.1006C87.8364 14.9796 86.3294 16.4932 84.4587 16.4932C82.588 16.4932 81.0811 14.9796 81.0811 13.1006C81.0811 11.2216 82.5361 9.70803 84.4587 9.70803C86.3814 9.76022 87.8364 11.2738 87.8364 13.1006ZM73.91 19.938C73.91 20.2512 73.91 20.7731 73.91 20.7731C73.91 20.7731 72.2991 18.6853 68.8695 18.6853C63.2054 18.6853 58.7884 23.0174 58.7884 29.0197C58.7884 34.9698 63.1534 39.354 68.8695 39.354C72.3511 39.354 73.91 37.2141 73.91 37.2141V38.1014C73.91 38.5189 74.2218 38.8321 74.6375 38.8321H78.8466V19.2073C78.8466 19.2073 75.0013 19.2073 74.6375 19.2073C74.2218 19.2073 73.91 19.5726 73.91 19.938ZM73.91 32.5167C73.1305 33.6649 71.5716 34.6566 69.7009 34.6566C66.3752 34.6566 63.8289 32.5689 63.8289 29.0197C63.8289 25.4705 66.3752 23.3828 69.7009 23.3828C71.5197 23.3828 73.1825 24.4266 73.91 25.5227V32.5167ZM81.9645 19.2073H86.953V38.8321H81.9645V19.2073ZM156.481 18.6853C153.051 18.6853 151.441 20.7731 151.441 20.7731V9.76022H146.452V38.8321C146.452 38.8321 150.297 38.8321 150.661 38.8321C151.077 38.8321 151.389 38.4667 151.389 38.1014V37.2141C151.389 37.2141 153 39.354 156.429 39.354C162.093 39.354 166.51 34.9698 166.51 29.0197C166.51 23.0696 162.093 18.6853 156.481 18.6853ZM155.65 34.6044C153.727 34.6044 152.22 33.6127 151.441 32.4645V25.4705C152.22 24.4266 153.883 23.3306 155.65 23.3306C158.975 23.3306 161.522 25.4183 161.522 28.9675C161.522 32.5167 158.975 34.6044 155.65 34.6044ZM143.854 27.1929V38.8843H138.865V27.767C138.865 24.531 137.826 23.2262 135.02 23.2262C133.513 23.2262 131.954 24.0091 130.967 25.1574V38.8321H125.978V19.2073H129.927C130.343 19.2073 130.655 19.5726 130.655 19.938V20.7731C132.11 19.2595 134.033 18.6853 135.955 18.6853C138.138 18.6853 139.957 19.3117 141.412 20.5643C143.178 22.0257 143.854 23.9047 143.854 27.1929ZM113.87 18.6853C110.441 18.6853 108.83 20.7731 108.83 20.7731V9.76022H103.841V38.8321C103.841 38.8321 107.687 38.8321 108.05 38.8321C108.466 38.8321 108.778 38.4667 108.778 38.1014V37.2141C108.778 37.2141 110.389 39.354 113.819 39.354C119.483 39.354 123.9 34.9698 123.9 29.0197C123.952 23.0696 119.535 18.6853 113.87 18.6853ZM113.039 34.6044C111.116 34.6044 109.609 33.6127 108.83 32.4645V25.4705C109.609 24.4266 111.272 23.3306 113.039 23.3306C116.365 23.3306 118.911 25.4183 118.911 28.9675C118.911 32.5167 116.365 34.6044 113.039 34.6044ZM99.5284 18.6853C101.035 18.6853 101.815 18.9463 101.815 18.9463V23.5915C101.815 23.5915 97.6577 22.1823 95.0594 25.1574V38.8843H90.0709V19.2073C90.0709 19.2073 93.9162 19.2073 94.28 19.2073C94.6957 19.2073 95.0075 19.5726 95.0075 19.938V20.7731C95.9428 19.677 97.9694 18.6853 99.5284 18.6853ZM47.72 37.0575C47.4602 36.4312 47.2004 35.7527 46.9406 35.1785C46.5249 34.2391 46.1091 33.3518 45.7454 32.5167L45.6934 32.4645C42.1079 24.6354 38.2626 16.702 34.2093 8.87293L34.0535 8.55976C33.6377 7.77686 33.222 6.94176 32.8063 6.10666C32.2867 5.16718 31.767 4.1755 30.9356 3.23601C29.2727 1.14826 26.8824 0 24.3361 0C21.7379 0 19.3995 1.14826 17.6847 3.13162C16.9053 4.07111 16.3337 5.06279 15.814 6.00227C15.3983 6.83737 14.9826 7.67247 14.5669 8.45538L14.411 8.76854C10.4097 16.5976 6.51242 24.531 2.92689 32.3601L2.87493 32.4645C2.51118 33.2996 2.09546 34.1869 1.67975 35.1264C1.41993 35.7005 1.16011 36.3268 0.900286 37.0053C0.224752 38.9365 0.0168947 40.7633 0.276716 42.6422C0.848322 46.5568 3.44653 49.845 7.03206 51.3064C8.38313 51.8805 9.78617 52.1415 11.2412 52.1415C11.6569 52.1415 12.1765 52.0893 12.5922 52.0371C14.3071 51.8283 16.0738 51.2542 17.7887 50.2625C19.9192 49.0621 21.9458 47.3397 24.2322 44.8344C26.5186 47.3397 28.5972 49.0621 30.6758 50.2625C32.3906 51.2542 34.1574 51.8283 35.8722 52.0371C36.2879 52.0893 36.8076 52.1415 37.2233 52.1415C38.6783 52.1415 40.1333 51.8805 41.4324 51.3064C45.0699 49.845 47.6161 46.5046 48.1877 42.6422C48.6034 40.8155 48.3956 38.9887 47.72 37.0575ZM24.2842 39.7716C21.4781 36.2224 19.6594 32.882 19.0358 30.0636C18.776 28.8631 18.724 27.8192 18.8799 26.8797C18.9838 26.0447 19.2956 25.3139 19.7113 24.6876C20.6987 23.2784 22.3615 22.3911 24.2842 22.3911C26.2069 22.3911 27.9217 23.2262 28.857 24.6876C29.2727 25.3139 29.5845 26.0447 29.6885 26.8797C29.8444 27.8192 29.7924 28.9153 29.5326 30.0636C28.909 32.8298 27.0903 36.1702 24.2842 39.7716ZM45.0179 42.2247C44.6542 44.9388 42.8354 47.2875 40.2892 48.3314C39.042 48.8533 37.6909 49.0099 36.3399 48.8533C35.0408 48.6967 33.7417 48.2792 32.3906 47.4963C30.5199 46.4524 28.6492 44.8344 26.4667 42.4335C29.8963 38.2058 31.9749 34.3434 32.7543 30.8987C33.1181 29.2807 33.1701 27.8192 33.0142 26.4622C32.8063 25.1574 32.3386 23.9569 31.6111 22.913C30.0002 20.5643 27.2981 19.2073 24.2842 19.2073C21.2703 19.2073 18.5681 20.6165 16.9572 22.913C16.2297 23.9569 15.7621 25.1574 15.5542 26.4622C15.3463 27.8192 15.3983 29.3329 15.814 30.8987C16.5935 34.3434 18.724 38.258 22.1017 42.4857C19.9712 44.8866 18.0485 46.5046 16.1778 47.5485C14.8267 48.3314 13.5276 48.7489 12.2285 48.9055C10.8255 49.0621 9.47438 48.8533 8.2792 48.3835C5.73296 47.3397 3.91421 44.991 3.55046 42.2769C3.39457 40.972 3.4985 39.6672 4.01814 38.2058C4.17403 37.6838 4.43385 37.1619 4.69367 36.5356C5.05742 35.7005 5.47314 34.8132 5.88885 33.9259L5.94081 33.8215C9.52635 26.0447 13.3717 18.1112 17.3729 10.3865L17.5288 10.0734C17.9445 9.29048 18.3603 8.45538 18.776 7.67247C19.1917 6.83737 19.6594 6.05447 20.231 5.37595C21.3222 4.1233 22.7772 3.44478 24.3881 3.44478C25.999 3.44478 27.454 4.1233 28.5452 5.37595C29.1169 6.05447 29.5845 6.83737 30.0002 7.67247C30.416 8.45538 30.8317 9.29048 31.2474 10.0734L31.4033 10.3865C35.3526 18.1634 39.1979 26.0968 42.7834 33.8737V33.9259C43.1992 34.761 43.5629 35.7005 43.9786 36.5356C44.2384 37.1619 44.4983 37.6838 44.6542 38.2058C45.0699 39.5628 45.2258 40.8677 45.0179 42.2247Z" fill="#FF5A5F"/>
</g>
<defs>
<clipPath id="clip0_127_1079">
<rect width="166.337" height="52.1415" fill="white" transform="translate(0.172852)"/>
</clipPath>
</defs>
</svg>
