<svg width="167" height="28" viewBox="0 0 167 28" fill="none" xmlns="http://www.w3.org/2000/svg">
<g clip-path="url(#clip0_127_1075)">
<path d="M77.6202 11.1667C75.1545 11.1667 73.4054 13.1127 73.4054 16.0999V27.0574H69.6414V7.77032H73.3604V10.1255C73.8191 9.34491 74.4764 8.70226 75.2643 8.26416C76.0521 7.82607 76.9418 7.60847 77.8411 7.63392H79.1934V11.1667H77.6202ZM67.0404 17.4139C67.0404 11.6623 62.9834 7.36112 57.4929 7.36112C56.1957 7.37001 54.913 7.63752 53.7186 8.14828C52.5242 8.65904 51.4417 9.40296 50.5335 10.3372C49.6252 11.2715 48.909 12.3777 48.4262 13.5922C47.9434 14.8067 47.7034 16.1055 47.72 17.4139C47.72 23.1609 52.1151 27.5075 57.849 27.5075C59.4507 27.538 61.0362 27.1798 62.4719 26.4628C63.9075 25.7459 65.1513 24.6914 66.0983 23.3882L63.3666 21.3695C62.7399 22.2517 61.9106 22.9678 60.9497 23.4563C59.9889 23.9448 58.925 24.1914 57.849 24.1748C56.3167 24.1675 54.8376 23.6067 53.6798 22.5942C52.5221 21.5816 51.7623 20.1841 51.5381 18.6551H67.0495L67.0404 17.4139ZM51.6193 15.6452C52.2909 12.7035 54.6215 10.712 57.4479 10.712C60.2742 10.712 62.6003 12.7035 63.2313 15.6452H51.6193ZM35.7969 7.36112C34.539 7.36219 33.2938 7.61467 32.1332 8.10398C30.9727 8.59329 29.9197 9.30973 29.0353 10.2119V0.568359H25.2713V27.0574H28.9902V24.6113C30.7918 26.4496 33.2433 27.4913 35.806 27.5075C37.1353 27.536 38.457 27.2965 39.6934 26.8031C40.9298 26.3097 42.056 25.5722 43.0062 24.634C43.9563 23.6958 44.7112 22.5757 45.2266 21.3394C45.7419 20.1031 46.0074 18.7755 46.0074 17.4343C46.0074 16.0932 45.7419 14.7655 45.2266 13.5292C44.7112 12.2929 43.9563 11.1728 43.0062 10.2346C42.056 9.29641 40.9298 8.55898 39.6934 8.06555C38.457 7.57212 37.1353 7.33263 35.806 7.36112H35.7969ZM35.5265 24.1157C34.2145 24.122 32.9302 23.7351 31.8366 23.004C30.743 22.2729 29.8894 21.2306 29.384 20.0094C28.8786 18.7882 28.7443 17.4431 28.9981 16.1448C29.2518 14.8465 29.8822 13.6534 30.8093 12.7171C31.7364 11.7807 32.9184 11.1432 34.2053 10.8855C35.4921 10.6277 36.8259 10.7614 38.0373 11.2695C39.2488 11.7775 40.2833 12.6371 41.0096 13.7392C41.7359 14.8412 42.1213 16.136 42.1169 17.4593C42.1181 18.3322 41.9483 19.1967 41.6174 20.0032C41.2866 20.8097 40.801 21.5424 40.1887 22.1591C39.5764 22.7759 38.8493 23.2646 38.0492 23.5973C37.2492 23.9299 36.3918 24.0999 35.5265 24.0975V24.1157ZM11.4098 23.9338C15.0431 23.9338 17.865 21.124 17.865 16.9137V0.568359H21.7642V27.0574H17.91V24.5522C17.0096 25.4908 15.9297 26.2355 14.7357 26.7411C13.5417 27.2468 12.2584 27.5028 10.9635 27.4939C5.36034 27.4939 1.04639 23.3746 1.04639 17.1274V0.568359H5.01775V16.9365C5.01775 21.1694 7.72242 23.9338 11.4098 23.9338Z" fill="#262626"/>
<path d="M88.5562 0.568359H106.979V5.11505H93.5327V11.5714H106.605V15.9635H93.5327V22.5289H106.979V27.0756H88.5562V0.568359ZM157.859 27.553C163.507 27.553 166.69 24.825 166.69 21.0785C166.69 18.4096 164.805 16.4181 160.861 15.5543L156.691 14.6949C154.271 14.2403 153.509 13.7856 153.509 12.8763C153.509 11.6987 154.676 10.9757 156.827 10.9757C159.157 10.9757 160.884 11.6077 161.334 13.7811H166.221C165.955 9.68903 163.038 6.98829 157.124 6.98829C152.012 6.98829 148.424 9.11615 148.424 13.24C148.424 16.0908 150.399 17.9458 154.658 18.8506L159.319 19.9373C161.159 20.301 161.65 20.8012 161.65 21.5695C161.65 22.7926 160.262 23.561 158.017 23.561C155.195 23.561 153.581 22.929 152.954 20.7557H148.041C148.758 24.8386 151.76 27.553 157.859 27.553ZM146.621 27.0574H141.333C138.016 27.0574 136.176 24.975 136.176 22.347V11.9351H132.458V7.49752H136.194V1.92782H141.108V7.49752H146.621V11.9351H141.108V21.0785C141.108 22.1197 141.825 22.6198 142.947 22.6198H146.621V27.0574ZM125.434 7.50662V9.27073C123.704 7.79572 121.51 6.98986 119.245 6.99739C117.889 6.96861 116.541 7.21319 115.279 7.71677C114.018 8.22035 112.869 8.97281 111.9 9.93004C110.931 10.8873 110.161 12.03 109.635 13.2913C109.11 14.5526 108.839 15.907 108.839 17.2752C108.839 18.6434 109.11 19.9978 109.635 21.2591C110.161 22.5204 110.931 23.6631 111.9 24.6203C112.869 25.5776 114.018 26.33 115.279 26.8336C116.541 27.3372 117.889 27.5818 119.245 27.553C121.511 27.5629 123.706 26.7568 125.434 25.2796V27.0483H130.334V7.49752L125.434 7.50662ZM119.651 23.2609C118.475 23.2744 117.323 22.9352 116.339 22.2863C115.355 21.6374 114.585 20.7081 114.126 19.6166C113.667 18.5251 113.54 17.3207 113.762 16.1563C113.983 14.9919 114.543 13.9202 115.369 13.0774C116.196 12.2346 117.253 11.6587 118.404 11.4229C119.556 11.1871 120.752 11.3021 121.839 11.7533C122.926 12.2044 123.855 12.9714 124.509 13.9566C125.163 14.9419 125.512 16.101 125.511 17.2866C125.518 18.0681 125.372 18.8433 125.08 19.5674C124.788 20.2914 124.357 20.9498 123.811 21.5046C123.265 22.0594 122.615 22.4995 121.9 22.7994C121.184 23.0993 120.417 23.2531 119.642 23.2518L119.651 23.2609Z" fill="#5FB709"/>
</g>
<defs>
<clipPath id="clip0_127_1075">
<rect width="166.337" height="27.7348" fill="white" transform="translate(0.510254)"/>
</clipPath>
</defs>
</svg>
