<svg width="181" height="29" viewBox="0 0 181 29" fill="none" xmlns="http://www.w3.org/2000/svg">
<path d="M16.5382 4.28886C16.9299 2.23504 18.7675 0.483249 20.8462 0.0906062C21.1173 0.0301996 20.9366 0 20.8462 0H16.2069C13.8269 0 11.5073 1.933 11.0554 4.25866L6.41602 28.3005H7.56079C9.94072 28.3005 12.2604 26.3977 12.7123 24.0418L16.5382 4.28886Z" fill="#03AFCC"/>
<path d="M48.9543 0H34.494C32.114 0 29.7944 1.933 29.3425 4.25866L24.7031 28.3005H27.6856C30.0655 28.3005 32.3852 26.3977 32.8371 24.0418L36.3015 6.10106C36.422 5.5272 36.9944 5.04395 37.5969 5.04395H44.4053C45.0078 5.04395 45.3995 5.5272 45.279 6.10106L44.1342 11.9605C44.0137 12.5344 43.4413 13.0176 42.8388 13.0176H36.0304L35.8798 13.7425C35.4279 16.0984 36.9944 18.0012 39.4045 18.0012H45.4597C47.8397 18.0012 50.1593 16.0682 50.6112 13.7425L52.4489 4.25866C52.9309 1.933 51.3644 0 48.9543 0Z" fill="#424242"/>
<path d="M118.062 27.5446C118.514 25.1887 116.948 23.2859 114.538 23.2859H108.151C107.549 23.2859 107.157 22.8027 107.277 22.2288L110.38 6.13044C110.501 5.55657 111.073 5.07332 111.676 5.07332H118.062C120.442 5.07332 122.762 3.14031 123.214 0.814653L123.365 0.0595703H108.573C106.193 0.0595703 103.873 1.99258 103.421 4.31824L99.6255 24.1014C99.1736 26.4573 100.74 28.3601 103.15 28.3601H117.912L118.062 27.5446Z" fill="#424242"/>
<path d="M128.275 22.2296L131.378 6.10106C131.498 5.5272 132.071 5.04395 132.673 5.04395H139.482C140.084 5.04395 140.476 5.5272 140.355 6.10106L137.252 22.2296C137.132 22.8035 136.56 23.2867 135.957 23.2867H129.149C128.576 23.2867 128.185 22.8035 128.275 22.2296ZM144.513 0H129.601C127.221 0 124.901 1.933 124.449 4.25866L120.653 24.0418C120.201 26.3977 121.798 28.3005 124.178 28.3005H139.09C141.47 28.3005 143.79 26.3675 144.242 24.0418L148.068 4.25866C148.489 1.933 146.893 0 144.513 0Z" fill="#424242"/>
<path d="M76.55 13.7425L78.3877 4.25866C78.8396 1.9028 77.273 0 74.863 0H60.4027C58.0227 0 55.7031 1.933 55.2512 4.25866L50.6118 28.3005H57.9324L62.2102 6.07086C62.3307 5.46679 62.9031 5.01374 63.5056 5.01374H70.314C70.9165 5.01374 71.3082 5.49699 71.1877 6.07086L70.0429 11.9303C69.9224 12.5042 69.35 12.9874 68.7475 12.9874H61.9391L61.7884 13.7123C61.6981 14.1955 61.6077 15.1923 62.0294 15.9775L68.9885 28.2703H76.791L70.9768 17.971H71.3684C73.7785 18.0314 76.0981 16.0984 76.55 13.7425Z" fill="#424242"/>
<path d="M172.108 13.7425L173.946 4.25866C174.398 1.9028 172.801 0 170.421 0H155.961C153.581 0 151.261 1.933 150.809 4.25866L146.17 28.3005H153.49L157.768 6.07086C157.889 5.46679 158.461 5.01374 159.064 5.01374H165.872C166.475 5.01374 166.866 5.49699 166.746 6.07086L165.601 11.9303C165.48 12.5042 164.908 12.9874 164.306 12.9874H157.527L157.377 13.7123C157.286 14.1955 157.196 15.1923 157.618 15.9775L164.577 28.2703H172.379L166.565 18.0314H166.957C169.337 18.0314 171.656 16.0984 172.108 13.7425Z" fill="#424242"/>
<path d="M26.6012 4.28886C26.9928 2.23504 28.8305 0.513452 30.879 0.0906062C31.1803 0.0301996 30.9995 0 30.9091 0H24.4622C22.0823 0 19.7626 1.933 19.3107 4.25866L14.6714 28.3005H17.6237C20.0036 28.3005 22.3233 26.3977 22.7752 24.0418L26.6012 4.28886Z" fill="#026496"/>
<path d="M4.63936 4.28886L0 28.2703C2.13892 27.938 4.06697 26.1863 4.4586 24.072L8.28456 4.28886C8.6762 2.23504 10.5139 0.483249 12.5925 0.0906062C12.8637 0.0301996 12.6528 0 12.5925 0H9.82097C7.41092 0 5.09124 1.93301 4.63936 4.28886Z" fill="#8ED7F4"/>
<path d="M86.8222 0C84.4423 0 82.1226 1.933 81.6707 4.25866L77.8749 24.0418C77.423 26.3977 79.0197 28.3005 81.3996 28.3005H96.9143L97.0649 27.5454C97.5168 25.1895 95.9503 23.2867 93.5402 23.2867H86.4005C85.7979 23.2867 85.4063 22.8035 85.5268 22.2296L86.6113 16.6118H96.5829L97.547 11.6585H87.5754L88.6599 6.13127C88.7804 5.5574 89.3528 5.07415 89.9553 5.07415H97.0951C99.475 5.07415 101.795 3.14114 102.247 0.815484L102.397 0.0604011H86.8222V0Z" fill="#424242"/>
<path d="M178.193 0.0302734C179.609 0.0302734 180.754 1.178 180.754 2.59755C180.754 4.01711 179.609 5.16483 178.193 5.16483C176.778 5.16483 175.633 4.01711 175.633 2.59755C175.633 1.178 176.778 0.0302734 178.193 0.0302734ZM178.193 4.56077C179.278 4.56077 180.122 3.68487 180.122 2.62776C180.122 1.54044 179.248 0.69475 178.193 0.69475C177.109 0.69475 176.265 1.57064 176.265 2.62776C176.265 3.68487 177.109 4.56077 178.193 4.56077ZM177.802 3.71508C177.802 3.8963 177.742 4.04732 177.501 4.04732C177.26 4.04732 177.199 3.9265 177.199 3.71508V1.57064C177.199 1.41963 177.26 1.26861 177.531 1.26861H178.314C178.886 1.26861 179.338 1.44983 179.338 2.0841C179.338 2.56736 179.097 2.83919 178.645 2.83919L179.127 3.65467C179.158 3.71508 179.158 3.77548 179.158 3.80569C179.158 3.9567 179.067 4.04732 178.826 4.04732C178.615 4.04732 178.525 3.8661 178.435 3.71508L177.983 2.89959H177.772V3.71508H177.802ZM178.314 2.38614C178.555 2.38614 178.676 2.32573 178.676 2.0841C178.676 1.84248 178.555 1.78207 178.314 1.78207H177.802V2.41634H178.314V2.38614Z" fill="#424242"/>
</svg>
