<svg width="36" height="36" viewBox="0 0 36 36" fill="none" xmlns="http://www.w3.org/2000/svg">
<path d="M18 36C27.9411 36 36 27.9411 36 18C36 8.05887 27.9411 0 18 0C8.05887 0 0 8.05887 0 18C0 27.9411 8.05887 36 18 36Z" fill="white"/>
<path d="M28 11.1309C27.2191 11.4923 26.3869 11.7318 25.5194 11.8482C26.4119 11.286 27.0931 10.4026 27.4133 9.33785C26.5812 9.86123 25.6624 10.2309 24.6833 10.4372C23.8932 9.54969 22.7671 9 21.5386 9C19.1551 9 17.2362 11.0409 17.2362 13.5429C17.2362 13.9029 17.2651 14.2491 17.3359 14.5786C13.7568 14.3945 10.5897 12.5848 8.46212 9.828C8.09069 10.5078 7.87281 11.286 7.87281 12.1237C7.87281 13.6966 8.64062 15.0909 9.78513 15.8982C9.09344 15.8843 8.41488 15.6725 7.84 15.3388C7.84 15.3526 7.84 15.3706 7.84 15.3886C7.84 17.5957 9.33231 19.4289 11.2892 19.8512C10.9388 19.9523 10.5569 20.0008 10.1605 20.0008C9.88488 20.0008 9.60662 19.9842 9.34544 19.9232C9.90325 21.7218 11.4861 23.0442 13.3683 23.0871C11.9035 24.2958 10.0437 25.0242 8.03031 25.0242C7.67725 25.0242 7.33862 25.0075 7 24.9618C8.90706 26.2592 11.1672 27 13.6045 27C21.5267 27 25.858 20.0769 25.858 14.076C25.858 13.8752 25.8514 13.6814 25.8423 13.4889C26.6967 12.8492 27.4146 12.0503 28 11.1309Z" fill="#000F37"/>
</svg>
