<svg width="36" height="36" viewBox="0 0 36 36" fill="none" xmlns="http://www.w3.org/2000/svg">
<path d="M18 36C27.9411 36 36 27.9411 36 18C36 8.05887 27.9411 0 18 0C8.05887 0 0 8.05887 0 18C0 27.9411 8.05887 36 18 36Z" fill="white"/>
<path d="M19.4964 28V18.8919H22.458L22.8982 15.3258H19.4964V13.0543C19.4964 12.0253 19.7727 11.3207 21.1962 11.3207H23V8.14132C22.1224 8.04374 21.2402 7.99662 20.3575 8.00019C17.7397 8.00019 15.9424 9.65823 15.9424 12.702V15.3191H13V18.8852H15.9488V28H19.4964Z" fill="#000F37"/>
</svg>
