<svg width="36" height="36" viewBox="0 0 36 36" fill="none" xmlns="http://www.w3.org/2000/svg">
<path d="M18 36C27.9411 36 36 27.9411 36 18C36 8.05887 27.9411 0 18 0C8.05887 0 0 8.05887 0 18C0 27.9411 8.05887 36 18 36Z" fill="white"/>
<path d="M14.358 25H11.248V14.9854H14.358V25ZM12.8011 13.6193C11.8068 13.6193 11 12.7954 11 11.8011C11 11.3234 11.1898 10.8653 11.5275 10.5275C11.8653 10.1898 12.3234 10 12.8011 10C13.2788 10 13.737 10.1898 14.0747 10.5275C14.4125 10.8653 14.6023 11.3234 14.6023 11.8011C14.6023 12.7954 13.7955 13.6193 12.8011 13.6193ZM25.9973 25H22.8944V20.125C22.8944 18.963 22.8708 17.4732 21.2775 17.4732C19.6607 17.4732 19.4126 18.7354 19.4126 20.0414V25H16.3059V14.9854H19.2883V16.3514H19.3317C19.7469 15.5645 20.7611 14.7341 22.274 14.7341C25.4214 14.7341 26 16.8068 26 19.4987V25H25.9973Z" fill="#000F37"/>
</svg>
