<svg width="36" height="36" viewBox="0 0 36 36" fill="none" xmlns="http://www.w3.org/2000/svg">
<path d="M18 36C27.9411 36 36 27.9411 36 18C36 8.05887 27.9411 0 18 0C8.05887 0 0 8.05887 0 18C0 27.9411 8.05887 36 18 36Z" fill="white"/>
<path d="M28.5321 12.5156C28.4012 12.033 28.1454 11.5929 27.7902 11.2391C27.4349 10.8853 26.9926 10.6302 26.5072 10.499C24.7076 10.008 17.508 10 17.508 10C17.508 10 10.3095 9.99202 8.50868 10.4613C8.02363 10.5985 7.58223 10.8573 7.22683 11.2128C6.87144 11.5684 6.614 12.0087 6.47921 12.4916C6.0046 14.2798 6 17.9886 6 17.9886C6 17.9886 5.9954 21.7157 6.46657 23.4856C6.73088 24.4642 7.50659 25.2372 8.49259 25.501C10.3106 25.992 17.4907 26 17.4907 26C17.4907 26 24.6904 26.008 26.49 25.5398C26.9755 25.4089 27.4183 25.1543 27.7744 24.8012C28.1305 24.4482 28.3878 24.0088 28.5206 23.5267C28.9964 21.7396 28.9998 18.032 28.9998 18.032C28.9998 18.032 29.0228 14.3037 28.5321 12.5156ZM15.205 21.4245L15.2107 14.5732L21.1946 18.0046L15.205 21.4245Z" fill="#000F37"/>
</svg>
